<mxfile host="app.diagrams.net" modified="2023-10-23T21:47:26.934Z" agent="Mozilla/5.0 (Windows NT 10.0; Win64; x64) AppleWebKit/537.36 (KHTML, like Gecko) Chrome/118.0.0.0 Safari/537.36" etag="L_17NfBB2r-d9KeK6A_g" version="22.0.6" type="google" pages="3">
  <diagram name="TP3" id="IY4um1K4-AojWs2Dz7OE">
    <mxGraphModel grid="1" page="1" gridSize="10" guides="1" tooltips="1" connect="1" arrows="1" fold="1" pageScale="1" pageWidth="827" pageHeight="1169" math="0" shadow="0">
      <root>
        <mxCell id="0" />
        <mxCell id="1" parent="0" />
        <mxCell id="dmKvnRU_0-1ShPmuGkLQ-1" value="" style="swimlane;startSize=0;" vertex="1" parent="1">
          <mxGeometry x="-1200" y="90" width="2110" height="90" as="geometry" />
        </mxCell>
        <mxCell id="dmKvnRU_0-1ShPmuGkLQ-2" value="&lt;font style=&quot;font-size: 18px;&quot;&gt;&lt;b&gt;Front-end&lt;/b&gt;&lt;/font&gt;" style="text;html=1;align=center;verticalAlign=middle;resizable=0;points=[];autosize=1;strokeColor=none;fillColor=none;" vertex="1" parent="dmKvnRU_0-1ShPmuGkLQ-1">
          <mxGeometry x="1020" y="15" width="110" height="40" as="geometry" />
        </mxCell>
        <mxCell id="dmKvnRU_0-1ShPmuGkLQ-3" value="grpc-frontend-react" style="text;html=1;align=center;verticalAlign=middle;resizable=0;points=[];autosize=1;strokeColor=none;fillColor=none;" vertex="1" parent="dmKvnRU_0-1ShPmuGkLQ-1">
          <mxGeometry x="1010" y="45" width="130" height="30" as="geometry" />
        </mxCell>
        <mxCell id="dmKvnRU_0-1ShPmuGkLQ-4" value="React.js" style="text;html=1;strokeColor=none;fillColor=none;align=center;verticalAlign=middle;whiteSpace=wrap;rounded=0;fontStyle=1" vertex="1" parent="dmKvnRU_0-1ShPmuGkLQ-1">
          <mxGeometry x="2020" y="60" width="60" height="30" as="geometry" />
        </mxCell>
        <mxCell id="dmKvnRU_0-1ShPmuGkLQ-5" value="" style="swimlane;startSize=0;" vertex="1" parent="1">
          <mxGeometry x="471" y="350" width="400" height="90" as="geometry" />
        </mxCell>
        <mxCell id="dmKvnRU_0-1ShPmuGkLQ-6" value="&lt;span style=&quot;font-size: 18px;&quot;&gt;&lt;b&gt;Cliente REST&lt;/b&gt;&lt;/span&gt;" style="text;html=1;align=center;verticalAlign=middle;resizable=0;points=[];autosize=1;strokeColor=none;fillColor=none;" vertex="1" parent="dmKvnRU_0-1ShPmuGkLQ-5">
          <mxGeometry x="125" y="10" width="140" height="40" as="geometry" />
        </mxCell>
        <mxCell id="dmKvnRU_0-1ShPmuGkLQ-7" value="grpc-client-net" style="text;html=1;align=center;verticalAlign=middle;resizable=0;points=[];autosize=1;strokeColor=none;fillColor=none;" vertex="1" parent="dmKvnRU_0-1ShPmuGkLQ-5">
          <mxGeometry x="145" y="40" width="100" height="30" as="geometry" />
        </mxCell>
        <mxCell id="dmKvnRU_0-1ShPmuGkLQ-8" value="C# .NET" style="text;html=1;strokeColor=none;fillColor=none;align=center;verticalAlign=middle;whiteSpace=wrap;rounded=0;fontStyle=1" vertex="1" parent="dmKvnRU_0-1ShPmuGkLQ-5">
          <mxGeometry x="340" y="60" width="60" height="30" as="geometry" />
        </mxCell>
        <mxCell id="dmKvnRU_0-1ShPmuGkLQ-17" value="" style="swimlane;startSize=0;" vertex="1" parent="1">
          <mxGeometry x="470" y="590" width="401" height="90" as="geometry" />
        </mxCell>
        <mxCell id="dmKvnRU_0-1ShPmuGkLQ-18" value="&lt;span style=&quot;font-size: 18px;&quot;&gt;&lt;b&gt;Back-end Servidor&lt;/b&gt;&lt;/span&gt;" style="text;html=1;align=center;verticalAlign=middle;resizable=0;points=[];autosize=1;strokeColor=none;fillColor=none;" vertex="1" parent="dmKvnRU_0-1ShPmuGkLQ-17">
          <mxGeometry x="105.5" width="180" height="40" as="geometry" />
        </mxCell>
        <mxCell id="dmKvnRU_0-1ShPmuGkLQ-19" value="grpc-server-java" style="text;html=1;align=center;verticalAlign=middle;resizable=0;points=[];autosize=1;strokeColor=none;fillColor=none;" vertex="1" parent="dmKvnRU_0-1ShPmuGkLQ-17">
          <mxGeometry x="130" y="30" width="110" height="30" as="geometry" />
        </mxCell>
        <mxCell id="dmKvnRU_0-1ShPmuGkLQ-20" value="Java maven" style="text;html=1;strokeColor=none;fillColor=none;align=center;verticalAlign=middle;whiteSpace=wrap;rounded=0;fontStyle=1" vertex="1" parent="dmKvnRU_0-1ShPmuGkLQ-17">
          <mxGeometry x="311" y="60" width="80" height="30" as="geometry" />
        </mxCell>
        <mxCell id="dmKvnRU_0-1ShPmuGkLQ-93" style="edgeStyle=orthogonalEdgeStyle;shape=connector;rounded=0;orthogonalLoop=1;jettySize=auto;html=1;entryX=0.5;entryY=0;entryDx=0;entryDy=0;labelBackgroundColor=default;strokeColor=default;fontFamily=Helvetica;fontSize=11;fontColor=default;endArrow=classic;" edge="1" parent="1" source="dmKvnRU_0-1ShPmuGkLQ-21" target="dmKvnRU_0-1ShPmuGkLQ-52">
          <mxGeometry relative="1" as="geometry" />
        </mxCell>
        <mxCell id="dmKvnRU_0-1ShPmuGkLQ-94" style="edgeStyle=orthogonalEdgeStyle;shape=connector;rounded=0;orthogonalLoop=1;jettySize=auto;html=1;exitX=0.246;exitY=1.004;exitDx=0;exitDy=0;entryX=0.555;entryY=0.043;entryDx=0;entryDy=0;entryPerimeter=0;labelBackgroundColor=default;strokeColor=default;fontFamily=Helvetica;fontSize=11;fontColor=default;endArrow=classic;exitPerimeter=0;" edge="1" parent="1" source="dmKvnRU_0-1ShPmuGkLQ-21" target="dmKvnRU_0-1ShPmuGkLQ-55">
          <mxGeometry relative="1" as="geometry" />
        </mxCell>
        <mxCell id="dmKvnRU_0-1ShPmuGkLQ-95" style="edgeStyle=orthogonalEdgeStyle;shape=connector;rounded=0;orthogonalLoop=1;jettySize=auto;html=1;exitX=0.745;exitY=1.008;exitDx=0;exitDy=0;entryX=0.75;entryY=0;entryDx=0;entryDy=0;labelBackgroundColor=default;strokeColor=default;fontFamily=Helvetica;fontSize=11;fontColor=default;endArrow=classic;exitPerimeter=0;" edge="1" parent="1" source="dmKvnRU_0-1ShPmuGkLQ-21" target="dmKvnRU_0-1ShPmuGkLQ-56">
          <mxGeometry relative="1" as="geometry" />
        </mxCell>
        <mxCell id="dmKvnRU_0-1ShPmuGkLQ-97" style="edgeStyle=orthogonalEdgeStyle;shape=connector;rounded=0;orthogonalLoop=1;jettySize=auto;html=1;exitX=1;exitY=0.5;exitDx=0;exitDy=0;entryX=0.5;entryY=0;entryDx=0;entryDy=0;labelBackgroundColor=default;strokeColor=default;fontFamily=Helvetica;fontSize=11;fontColor=default;endArrow=classic;" edge="1" parent="1" source="dmKvnRU_0-1ShPmuGkLQ-21" target="dmKvnRU_0-1ShPmuGkLQ-53">
          <mxGeometry relative="1" as="geometry" />
        </mxCell>
        <mxCell id="dmKvnRU_0-1ShPmuGkLQ-21" value="" style="swimlane;startSize=0;" vertex="1" parent="1">
          <mxGeometry x="-560" y="350" width="397" height="90" as="geometry" />
        </mxCell>
        <mxCell id="dmKvnRU_0-1ShPmuGkLQ-22" value="&lt;span style=&quot;font-size: 18px;&quot;&gt;&lt;b&gt;Back-end Kafka&lt;/b&gt;&lt;/span&gt;" style="text;html=1;align=center;verticalAlign=middle;resizable=0;points=[];autosize=1;strokeColor=none;fillColor=none;" vertex="1" parent="dmKvnRU_0-1ShPmuGkLQ-21">
          <mxGeometry x="115" y="10" width="160" height="40" as="geometry" />
        </mxCell>
        <mxCell id="dmKvnRU_0-1ShPmuGkLQ-23" value="kafka-node" style="text;html=1;align=center;verticalAlign=middle;resizable=0;points=[];autosize=1;strokeColor=none;fillColor=none;" vertex="1" parent="dmKvnRU_0-1ShPmuGkLQ-21">
          <mxGeometry x="155" y="39.57" width="80" height="30" as="geometry" />
        </mxCell>
        <mxCell id="dmKvnRU_0-1ShPmuGkLQ-24" value="Node.js" style="text;html=1;strokeColor=none;fillColor=none;align=center;verticalAlign=middle;whiteSpace=wrap;rounded=0;fontStyle=1" vertex="1" parent="dmKvnRU_0-1ShPmuGkLQ-21">
          <mxGeometry x="320" y="50" width="60" height="30" as="geometry" />
        </mxCell>
        <mxCell id="dmKvnRU_0-1ShPmuGkLQ-40" value="" style="shape=link;html=1;rounded=0;fillColor=#dae8fc;strokeColor=#6c8ebf;" edge="1" parent="1">
          <mxGeometry relative="1" as="geometry">
            <mxPoint x="471" y="310" as="sourcePoint" />
            <mxPoint x="871" y="310" as="targetPoint" />
          </mxGeometry>
        </mxCell>
        <mxCell id="dmKvnRU_0-1ShPmuGkLQ-41" value="" style="resizable=0;html=1;whiteSpace=wrap;align=right;verticalAlign=bottom;fontStyle=1" connectable="0" vertex="1" parent="dmKvnRU_0-1ShPmuGkLQ-40">
          <mxGeometry x="1" relative="1" as="geometry">
            <mxPoint x="-30" as="offset" />
          </mxGeometry>
        </mxCell>
        <mxCell id="dmKvnRU_0-1ShPmuGkLQ-42" value="&lt;b&gt;&lt;font color=&quot;#3399ff&quot;&gt;Rest on HTTP&lt;/font&gt;&lt;/b&gt;" style="text;html=1;strokeColor=none;fillColor=none;align=center;verticalAlign=middle;whiteSpace=wrap;rounded=0;" vertex="1" parent="1">
          <mxGeometry x="611" y="310" width="100" height="30" as="geometry" />
        </mxCell>
        <mxCell id="dmKvnRU_0-1ShPmuGkLQ-43" value="" style="shape=link;html=1;rounded=0;fillColor=#f8cecc;strokeColor=#b85450;" edge="1" parent="1">
          <mxGeometry relative="1" as="geometry">
            <mxPoint x="470" y="550" as="sourcePoint" />
            <mxPoint x="871" y="550" as="targetPoint" />
          </mxGeometry>
        </mxCell>
        <mxCell id="dmKvnRU_0-1ShPmuGkLQ-44" value="" style="resizable=0;html=1;whiteSpace=wrap;align=right;verticalAlign=bottom;fontStyle=1" connectable="0" vertex="1" parent="dmKvnRU_0-1ShPmuGkLQ-43">
          <mxGeometry x="1" relative="1" as="geometry">
            <mxPoint x="-30" as="offset" />
          </mxGeometry>
        </mxCell>
        <mxCell id="dmKvnRU_0-1ShPmuGkLQ-45" value="&lt;b&gt;&lt;font color=&quot;#ff3333&quot;&gt;gRPC on HTTP/2&lt;/font&gt;&lt;/b&gt;" style="text;html=1;strokeColor=none;fillColor=none;align=center;verticalAlign=middle;whiteSpace=wrap;rounded=0;" vertex="1" parent="1">
          <mxGeometry x="609.75" y="550" width="100" height="30" as="geometry" />
        </mxCell>
        <mxCell id="dmKvnRU_0-1ShPmuGkLQ-52" value="&lt;b&gt;Producer&lt;/b&gt;" style="rounded=0;whiteSpace=wrap;html=1;fillColor=#b0e3e6;strokeColor=#0e8088;" vertex="1" parent="1">
          <mxGeometry x="-720" y="490" width="140" height="60" as="geometry" />
        </mxCell>
        <mxCell id="dmKvnRU_0-1ShPmuGkLQ-53" value="&lt;b&gt;Consumer&lt;/b&gt;" style="rounded=0;whiteSpace=wrap;html=1;fillColor=#d0cee2;strokeColor=#56517e;" vertex="1" parent="1">
          <mxGeometry x="-200" y="490" width="140" height="60" as="geometry" />
        </mxCell>
        <mxCell id="dmKvnRU_0-1ShPmuGkLQ-55" value="&lt;b&gt;Producer&lt;/b&gt;" style="rounded=0;whiteSpace=wrap;html=1;fillColor=#b0e3e6;strokeColor=#0e8088;" vertex="1" parent="1">
          <mxGeometry x="-540" y="490" width="140" height="60" as="geometry" />
        </mxCell>
        <mxCell id="dmKvnRU_0-1ShPmuGkLQ-56" value="&lt;b&gt;Producer&lt;/b&gt;" style="rounded=0;whiteSpace=wrap;html=1;fillColor=#b0e3e6;strokeColor=#0e8088;" vertex="1" parent="1">
          <mxGeometry x="-370" y="490" width="140" height="60" as="geometry" />
        </mxCell>
        <mxCell id="dmKvnRU_0-1ShPmuGkLQ-59" value="&lt;b&gt;TOPICO: &quot;PopularidadUsuario&quot;&lt;/b&gt;" style="rounded=0;whiteSpace=wrap;html=1;fillColor=#fad7ac;strokeColor=#b46504;" vertex="1" parent="1">
          <mxGeometry x="-540" y="670" width="140" height="60" as="geometry" />
        </mxCell>
        <mxCell id="dmKvnRU_0-1ShPmuGkLQ-60" value="&lt;b&gt;TOPICO: &quot;PopularidadReceta&quot;&lt;/b&gt;" style="rounded=0;whiteSpace=wrap;html=1;fillColor=#fad7ac;strokeColor=#b46504;" vertex="1" parent="1">
          <mxGeometry x="-370" y="670" width="140" height="60" as="geometry" />
        </mxCell>
        <mxCell id="dmKvnRU_0-1ShPmuGkLQ-61" value="&lt;b&gt;TOPICO: &lt;br&gt;&quot;Comentarios&quot;&lt;/b&gt;" style="rounded=0;whiteSpace=wrap;html=1;fillColor=#fad7ac;strokeColor=#b46504;" vertex="1" parent="1">
          <mxGeometry x="-720" y="670" width="140" height="60" as="geometry" />
        </mxCell>
        <mxCell id="dmKvnRU_0-1ShPmuGkLQ-62" value="&lt;b&gt;TOPICO: &lt;br&gt;&quot;Novedades&quot;&lt;/b&gt;" style="rounded=0;whiteSpace=wrap;html=1;fillColor=#fad7ac;strokeColor=#b46504;" vertex="1" parent="1">
          <mxGeometry x="-200" y="670" width="140" height="60" as="geometry" />
        </mxCell>
        <mxCell id="ucL1FPXEnx8njxg_ZiKC-17" style="edgeStyle=orthogonalEdgeStyle;rounded=0;orthogonalLoop=1;jettySize=auto;html=1;exitX=1;exitY=0.5;exitDx=0;exitDy=0;" edge="1" parent="1" source="dmKvnRU_0-1ShPmuGkLQ-75">
          <mxGeometry relative="1" as="geometry">
            <mxPoint x="870" y="660" as="targetPoint" />
            <Array as="points">
              <mxPoint x="910" y="870" />
              <mxPoint x="910" y="660" />
            </Array>
          </mxGeometry>
        </mxCell>
        <mxCell id="dmKvnRU_0-1ShPmuGkLQ-75" value="&lt;b&gt;Producer&lt;/b&gt;" style="rounded=0;whiteSpace=wrap;html=1;fillColor=#b0e3e6;strokeColor=#0e8088;" vertex="1" parent="1">
          <mxGeometry x="-200" y="840" width="140" height="60" as="geometry" />
        </mxCell>
        <mxCell id="dmKvnRU_0-1ShPmuGkLQ-76" value="" style="html=1;shadow=0;dashed=0;align=center;verticalAlign=middle;shape=mxgraph.arrows2.arrow;dy=0.6;dx=40;direction=south;notch=0;" vertex="1" parent="1">
          <mxGeometry x="-685" y="560" width="65" height="70" as="geometry" />
        </mxCell>
        <mxCell id="dmKvnRU_0-1ShPmuGkLQ-77" value="" style="html=1;shadow=0;dashed=0;align=center;verticalAlign=middle;shape=mxgraph.arrows2.arrow;dy=0.6;dx=40;direction=south;notch=0;" vertex="1" parent="1">
          <mxGeometry x="-502.5" y="560" width="65" height="70" as="geometry" />
        </mxCell>
        <mxCell id="dmKvnRU_0-1ShPmuGkLQ-78" value="" style="html=1;shadow=0;dashed=0;align=center;verticalAlign=middle;shape=mxgraph.arrows2.arrow;dy=0.6;dx=40;direction=south;notch=0;" vertex="1" parent="1">
          <mxGeometry x="-332.5" y="560" width="65" height="70" as="geometry" />
        </mxCell>
        <mxCell id="dmKvnRU_0-1ShPmuGkLQ-79" value="" style="html=1;shadow=0;dashed=0;align=center;verticalAlign=middle;shape=mxgraph.arrows2.arrow;dy=0.6;dx=40;direction=south;notch=0;" vertex="1" parent="1">
          <mxGeometry x="-685" y="770" width="65" height="240" as="geometry" />
        </mxCell>
        <mxCell id="dmKvnRU_0-1ShPmuGkLQ-80" value="" style="html=1;shadow=0;dashed=0;align=center;verticalAlign=middle;shape=mxgraph.arrows2.arrow;dy=0.6;dx=40;direction=south;notch=0;" vertex="1" parent="1">
          <mxGeometry x="-502.5" y="770" width="65" height="180" as="geometry" />
        </mxCell>
        <mxCell id="dmKvnRU_0-1ShPmuGkLQ-81" value="" style="html=1;shadow=0;dashed=0;align=center;verticalAlign=middle;shape=mxgraph.arrows2.arrow;dy=0.6;dx=40;direction=south;notch=0;" vertex="1" parent="1">
          <mxGeometry x="-332.5" y="770" width="65" height="120" as="geometry" />
        </mxCell>
        <mxCell id="dmKvnRU_0-1ShPmuGkLQ-83" value="" style="html=1;shadow=0;dashed=0;align=center;verticalAlign=middle;shape=mxgraph.arrows2.arrow;dy=0.6;dx=40;direction=north;notch=0;" vertex="1" parent="1">
          <mxGeometry x="-165" y="770" width="70" height="60" as="geometry" />
        </mxCell>
        <mxCell id="dmKvnRU_0-1ShPmuGkLQ-85" value="" style="html=1;shadow=0;dashed=0;align=center;verticalAlign=middle;shape=mxgraph.arrows2.arrow;dy=0.6;dx=40;direction=north;notch=0;" vertex="1" parent="1">
          <mxGeometry x="-165" y="560" width="70" height="70" as="geometry" />
        </mxCell>
        <mxCell id="dmKvnRU_0-1ShPmuGkLQ-99" value="" style="rounded=0;whiteSpace=wrap;html=1;fontFamily=Helvetica;fontSize=11;fillColor=none;" vertex="1" parent="1">
          <mxGeometry x="-760" y="640" width="740" height="120" as="geometry" />
        </mxCell>
        <mxCell id="dmKvnRU_0-1ShPmuGkLQ-100" value="Kafka" style="text;html=1;strokeColor=none;fillColor=none;align=center;verticalAlign=middle;whiteSpace=wrap;rounded=0;fontStyle=1" vertex="1" parent="1">
          <mxGeometry x="-760" y="730" width="60" height="30" as="geometry" />
        </mxCell>
        <mxCell id="dmKvnRU_0-1ShPmuGkLQ-102" value="" style="html=1;shadow=0;dashed=0;align=center;verticalAlign=middle;shape=mxgraph.arrows2.arrow;dy=0.6;dx=40;direction=south;notch=0;" vertex="1" parent="1">
          <mxGeometry x="542.25" y="460" width="65" height="70" as="geometry" />
        </mxCell>
        <mxCell id="dmKvnRU_0-1ShPmuGkLQ-103" value="" style="html=1;shadow=0;dashed=0;align=center;verticalAlign=middle;shape=mxgraph.arrows2.arrow;dy=0.6;dx=40;direction=north;notch=0;" vertex="1" parent="1">
          <mxGeometry x="709.75" y="460" width="70" height="70" as="geometry" />
        </mxCell>
        <mxCell id="dmKvnRU_0-1ShPmuGkLQ-104" value="" style="html=1;shadow=0;dashed=0;align=center;verticalAlign=middle;shape=mxgraph.arrows2.arrow;dy=0.6;dx=40;direction=south;notch=0;" vertex="1" parent="1">
          <mxGeometry x="542.25" y="210" width="65" height="70" as="geometry" />
        </mxCell>
        <mxCell id="dmKvnRU_0-1ShPmuGkLQ-105" value="" style="html=1;shadow=0;dashed=0;align=center;verticalAlign=middle;shape=mxgraph.arrows2.arrow;dy=0.6;dx=40;direction=north;notch=0;" vertex="1" parent="1">
          <mxGeometry x="709.75" y="210" width="70" height="70" as="geometry" />
        </mxCell>
        <mxCell id="dmKvnRU_0-1ShPmuGkLQ-106" value="" style="shape=singleArrow;direction=north;whiteSpace=wrap;html=1;fontFamily=Helvetica;fontSize=11;fontColor=default;rotation=-90;" vertex="1" parent="1">
          <mxGeometry x="-55" y="305" width="40" height="130" as="geometry" />
        </mxCell>
        <mxCell id="dmKvnRU_0-1ShPmuGkLQ-109" value="" style="shape=singleArrow;direction=north;whiteSpace=wrap;html=1;fontFamily=Helvetica;fontSize=11;fontColor=default;rotation=90;" vertex="1" parent="1">
          <mxGeometry x="-55" y="365" width="40" height="130" as="geometry" />
        </mxCell>
        <mxCell id="dmKvnRU_0-1ShPmuGkLQ-120" style="edgeStyle=orthogonalEdgeStyle;shape=connector;rounded=0;orthogonalLoop=1;jettySize=auto;html=1;entryX=0.5;entryY=1;entryDx=0;entryDy=0;labelBackgroundColor=default;strokeColor=default;fontFamily=Helvetica;fontSize=11;fontColor=default;endArrow=classic;" edge="1" parent="1" source="dmKvnRU_0-1ShPmuGkLQ-118" target="dmKvnRU_0-1ShPmuGkLQ-119">
          <mxGeometry relative="1" as="geometry" />
        </mxCell>
        <mxCell id="ucL1FPXEnx8njxg_ZiKC-18" style="edgeStyle=orthogonalEdgeStyle;rounded=0;orthogonalLoop=1;jettySize=auto;html=1;" edge="1" parent="1" source="dmKvnRU_0-1ShPmuGkLQ-118" target="dmKvnRU_0-1ShPmuGkLQ-17">
          <mxGeometry relative="1" as="geometry">
            <Array as="points">
              <mxPoint x="950" y="1010" />
              <mxPoint x="950" y="640" />
            </Array>
            <mxPoint x="880" y="620" as="targetPoint" />
          </mxGeometry>
        </mxCell>
        <mxCell id="dmKvnRU_0-1ShPmuGkLQ-118" value="&lt;b&gt;Tarea programada&lt;/b&gt;" style="rounded=0;whiteSpace=wrap;html=1;fillColor=#bac8d3;strokeColor=#23445d;" vertex="1" parent="1">
          <mxGeometry x="-200" y="980" width="140" height="60" as="geometry" />
        </mxCell>
        <mxCell id="dmKvnRU_0-1ShPmuGkLQ-119" value="&lt;b&gt;Consumer&lt;/b&gt;" style="rounded=0;whiteSpace=wrap;html=1;fillColor=#d0cee2;strokeColor=#56517e;" vertex="1" parent="1">
          <mxGeometry x="-360" y="900" width="140" height="60" as="geometry" />
        </mxCell>
        <mxCell id="dmKvnRU_0-1ShPmuGkLQ-121" value="&lt;b&gt;Consumer&lt;/b&gt;" style="rounded=0;whiteSpace=wrap;html=1;fillColor=#d0cee2;strokeColor=#56517e;" vertex="1" parent="1">
          <mxGeometry x="-540" y="960" width="140" height="60" as="geometry" />
        </mxCell>
        <mxCell id="dmKvnRU_0-1ShPmuGkLQ-126" style="edgeStyle=orthogonalEdgeStyle;shape=connector;rounded=0;orthogonalLoop=1;jettySize=auto;html=1;exitX=0;exitY=0.5;exitDx=0;exitDy=0;entryX=0.5;entryY=1;entryDx=0;entryDy=0;labelBackgroundColor=default;strokeColor=default;fontFamily=Helvetica;fontSize=11;fontColor=default;endArrow=classic;" edge="1" parent="1" source="dmKvnRU_0-1ShPmuGkLQ-122" target="dmKvnRU_0-1ShPmuGkLQ-121">
          <mxGeometry relative="1" as="geometry" />
        </mxCell>
        <mxCell id="ucL1FPXEnx8njxg_ZiKC-19" style="edgeStyle=orthogonalEdgeStyle;rounded=0;orthogonalLoop=1;jettySize=auto;html=1;entryX=0.997;entryY=0.333;entryDx=0;entryDy=0;entryPerimeter=0;" edge="1" parent="1" source="dmKvnRU_0-1ShPmuGkLQ-122" target="dmKvnRU_0-1ShPmuGkLQ-17">
          <mxGeometry relative="1" as="geometry">
            <Array as="points">
              <mxPoint x="990" y="1090" />
              <mxPoint x="990" y="620" />
            </Array>
          </mxGeometry>
        </mxCell>
        <mxCell id="dmKvnRU_0-1ShPmuGkLQ-122" value="&lt;b&gt;Tarea programada&lt;/b&gt;" style="rounded=0;whiteSpace=wrap;html=1;fillColor=#bac8d3;strokeColor=#23445d;" vertex="1" parent="1">
          <mxGeometry x="-200" y="1060" width="140" height="60" as="geometry" />
        </mxCell>
        <mxCell id="dmKvnRU_0-1ShPmuGkLQ-127" style="edgeStyle=orthogonalEdgeStyle;shape=connector;rounded=0;orthogonalLoop=1;jettySize=auto;html=1;exitX=0;exitY=0.5;exitDx=0;exitDy=0;entryX=0.5;entryY=1;entryDx=0;entryDy=0;labelBackgroundColor=default;strokeColor=default;fontFamily=Helvetica;fontSize=11;fontColor=default;endArrow=classic;" edge="1" parent="1" source="dmKvnRU_0-1ShPmuGkLQ-123" target="dmKvnRU_0-1ShPmuGkLQ-125">
          <mxGeometry relative="1" as="geometry" />
        </mxCell>
        <mxCell id="dmKvnRU_0-1ShPmuGkLQ-123" value="&lt;b&gt;Tarea programada&lt;/b&gt;" style="rounded=0;whiteSpace=wrap;html=1;fillColor=#bac8d3;strokeColor=#23445d;" vertex="1" parent="1">
          <mxGeometry x="-200" y="1140" width="140" height="60" as="geometry" />
        </mxCell>
        <mxCell id="dmKvnRU_0-1ShPmuGkLQ-125" value="&lt;b&gt;Consumer&lt;/b&gt;" style="rounded=0;whiteSpace=wrap;html=1;fillColor=#d0cee2;strokeColor=#56517e;" vertex="1" parent="1">
          <mxGeometry x="-720" y="1020" width="140" height="60" as="geometry" />
        </mxCell>
        <mxCell id="dmKvnRU_0-1ShPmuGkLQ-132" value="&lt;b&gt;&lt;font color=&quot;#cc99ff&quot;&gt;JPA&lt;/font&gt;&lt;/b&gt;" style="text;html=1;strokeColor=none;fillColor=none;align=center;verticalAlign=middle;whiteSpace=wrap;rounded=0;rotation=0;" vertex="1" parent="1">
          <mxGeometry x="621" y="680" width="100" height="30" as="geometry" />
        </mxCell>
        <mxCell id="dmKvnRU_0-1ShPmuGkLQ-144" value="" style="swimlane;startSize=0;" vertex="1" parent="1">
          <mxGeometry x="90" y="720" width="781" height="90" as="geometry" />
        </mxCell>
        <mxCell id="dmKvnRU_0-1ShPmuGkLQ-145" value="&lt;span style=&quot;font-size: 18px;&quot;&gt;&lt;b&gt;Base de datos&lt;/b&gt;&lt;/span&gt;" style="text;html=1;align=center;verticalAlign=middle;resizable=0;points=[];autosize=1;strokeColor=none;fillColor=none;" vertex="1" parent="dmKvnRU_0-1ShPmuGkLQ-144">
          <mxGeometry x="280" width="150" height="40" as="geometry" />
        </mxCell>
        <mxCell id="dmKvnRU_0-1ShPmuGkLQ-146" value="relacional" style="text;html=1;align=center;verticalAlign=middle;resizable=0;points=[];autosize=1;strokeColor=none;fillColor=none;" vertex="1" parent="dmKvnRU_0-1ShPmuGkLQ-144">
          <mxGeometry x="320" y="30" width="70" height="30" as="geometry" />
        </mxCell>
        <mxCell id="dmKvnRU_0-1ShPmuGkLQ-147" value="MySQL" style="text;html=1;strokeColor=none;fillColor=none;align=center;verticalAlign=middle;whiteSpace=wrap;rounded=0;fontStyle=1" vertex="1" parent="dmKvnRU_0-1ShPmuGkLQ-144">
          <mxGeometry x="651" y="60" width="80" height="30" as="geometry" />
        </mxCell>
        <mxCell id="dmKvnRU_0-1ShPmuGkLQ-138" value="" style="shape=link;html=1;rounded=0;labelBackgroundColor=default;strokeColor=#9673a6;fontFamily=Helvetica;fontSize=11;fontColor=default;endArrow=classic;fillColor=#e1d5e7;" edge="1" parent="1">
          <mxGeometry relative="1" as="geometry">
            <mxPoint x="480" y="710" as="sourcePoint" />
            <mxPoint x="871" y="710" as="targetPoint" />
          </mxGeometry>
        </mxCell>
        <mxCell id="dmKvnRU_0-1ShPmuGkLQ-139" value="" style="resizable=0;html=1;whiteSpace=wrap;align=right;verticalAlign=bottom;fontFamily=Helvetica;fontSize=11;fontColor=default;" connectable="0" vertex="1" parent="dmKvnRU_0-1ShPmuGkLQ-138">
          <mxGeometry x="1" relative="1" as="geometry" />
        </mxCell>
        <mxCell id="L-xKZS4PQy1o8BelDeCo-6" value="" style="swimlane;startSize=0;" vertex="1" parent="1">
          <mxGeometry x="90" y="350" width="360" height="90" as="geometry" />
        </mxCell>
        <mxCell id="L-xKZS4PQy1o8BelDeCo-7" value="&lt;span style=&quot;font-size: 18px;&quot;&gt;&lt;b&gt;API SOAP&lt;/b&gt;&lt;/span&gt;" style="text;html=1;align=center;verticalAlign=middle;resizable=0;points=[];autosize=1;strokeColor=none;fillColor=none;" vertex="1" parent="L-xKZS4PQy1o8BelDeCo-6">
          <mxGeometry x="120" y="10" width="110" height="40" as="geometry" />
        </mxCell>
        <mxCell id="L-xKZS4PQy1o8BelDeCo-8" value="soap-net" style="text;html=1;align=center;verticalAlign=middle;resizable=0;points=[];autosize=1;strokeColor=none;fillColor=none;" vertex="1" parent="L-xKZS4PQy1o8BelDeCo-6">
          <mxGeometry x="130" y="40" width="70" height="30" as="geometry" />
        </mxCell>
        <mxCell id="L-xKZS4PQy1o8BelDeCo-9" value="C# .NET" style="text;html=1;strokeColor=none;fillColor=none;align=center;verticalAlign=middle;whiteSpace=wrap;rounded=0;fontStyle=1" vertex="1" parent="L-xKZS4PQy1o8BelDeCo-6">
          <mxGeometry x="300" y="60" width="60" height="30" as="geometry" />
        </mxCell>
        <mxCell id="L-xKZS4PQy1o8BelDeCo-10" value="" style="swimlane;startSize=0;" vertex="1" parent="1">
          <mxGeometry x="-1210" y="580" width="340" height="90" as="geometry" />
        </mxCell>
        <mxCell id="L-xKZS4PQy1o8BelDeCo-11" value="&lt;span style=&quot;font-size: 18px;&quot;&gt;&lt;b&gt;Base de datos&lt;/b&gt;&lt;/span&gt;" style="text;html=1;align=center;verticalAlign=middle;resizable=0;points=[];autosize=1;strokeColor=none;fillColor=none;" vertex="1" parent="L-xKZS4PQy1o8BelDeCo-10">
          <mxGeometry x="90" y="10" width="150" height="40" as="geometry" />
        </mxCell>
        <mxCell id="L-xKZS4PQy1o8BelDeCo-12" value="No relacional" style="text;html=1;align=center;verticalAlign=middle;resizable=0;points=[];autosize=1;strokeColor=none;fillColor=none;" vertex="1" parent="L-xKZS4PQy1o8BelDeCo-10">
          <mxGeometry x="110" y="40" width="90" height="30" as="geometry" />
        </mxCell>
        <mxCell id="L-xKZS4PQy1o8BelDeCo-13" value="MongoDB" style="text;html=1;strokeColor=none;fillColor=none;align=center;verticalAlign=middle;whiteSpace=wrap;rounded=0;fontStyle=1" vertex="1" parent="L-xKZS4PQy1o8BelDeCo-10">
          <mxGeometry x="270" y="60" width="60" height="30" as="geometry" />
        </mxCell>
        <mxCell id="L-xKZS4PQy1o8BelDeCo-22" value="" style="shape=link;html=1;rounded=0;fillColor=#dae8fc;strokeColor=#6c8ebf;" edge="1" parent="1">
          <mxGeometry relative="1" as="geometry">
            <mxPoint x="-1210" y="300" as="sourcePoint" />
            <mxPoint x="-870" y="300" as="targetPoint" />
          </mxGeometry>
        </mxCell>
        <mxCell id="L-xKZS4PQy1o8BelDeCo-23" value="" style="resizable=0;html=1;whiteSpace=wrap;align=right;verticalAlign=bottom;fontStyle=1" connectable="0" vertex="1" parent="L-xKZS4PQy1o8BelDeCo-22">
          <mxGeometry x="1" relative="1" as="geometry">
            <mxPoint x="-30" as="offset" />
          </mxGeometry>
        </mxCell>
        <mxCell id="L-xKZS4PQy1o8BelDeCo-24" value="&lt;b&gt;&lt;font color=&quot;#3399ff&quot;&gt;Rest on HTTP&lt;/font&gt;&lt;/b&gt;" style="text;html=1;strokeColor=none;fillColor=none;align=center;verticalAlign=middle;whiteSpace=wrap;rounded=0;" vertex="1" parent="1">
          <mxGeometry x="-1100" y="300" width="100" height="30" as="geometry" />
        </mxCell>
        <mxCell id="L-xKZS4PQy1o8BelDeCo-25" value="" style="shape=link;html=1;rounded=0;fillColor=#f0a30a;strokeColor=#BD7000;" edge="1" parent="1">
          <mxGeometry relative="1" as="geometry">
            <mxPoint x="70" y="349.99999999999994" as="sourcePoint" />
            <mxPoint x="70" y="440" as="targetPoint" />
          </mxGeometry>
        </mxCell>
        <mxCell id="L-xKZS4PQy1o8BelDeCo-26" value="" style="resizable=0;html=1;whiteSpace=wrap;align=right;verticalAlign=bottom;fontStyle=1" connectable="0" vertex="1" parent="L-xKZS4PQy1o8BelDeCo-25">
          <mxGeometry x="1" relative="1" as="geometry">
            <mxPoint x="-30" as="offset" />
          </mxGeometry>
        </mxCell>
        <mxCell id="L-xKZS4PQy1o8BelDeCo-27" value="&lt;b style=&quot;&quot;&gt;&lt;font color=&quot;#ff9933&quot;&gt;Soap WSDL&lt;/font&gt;&lt;/b&gt;" style="text;html=1;strokeColor=none;fillColor=none;align=center;verticalAlign=middle;whiteSpace=wrap;rounded=0;rotation=90;" vertex="1" parent="1">
          <mxGeometry y="379.99999999999994" width="100" height="30" as="geometry" />
        </mxCell>
        <mxCell id="ucL1FPXEnx8njxg_ZiKC-10" value="" style="shape=link;html=1;rounded=0;fillColor=#dae8fc;strokeColor=#6c8ebf;" edge="1" parent="1">
          <mxGeometry relative="1" as="geometry">
            <mxPoint x="-563" y="310" as="sourcePoint" />
            <mxPoint x="-163" y="310" as="targetPoint" />
          </mxGeometry>
        </mxCell>
        <mxCell id="ucL1FPXEnx8njxg_ZiKC-11" value="" style="resizable=0;html=1;whiteSpace=wrap;align=right;verticalAlign=bottom;fontStyle=1" connectable="0" vertex="1" parent="ucL1FPXEnx8njxg_ZiKC-10">
          <mxGeometry x="1" relative="1" as="geometry">
            <mxPoint x="-30" as="offset" />
          </mxGeometry>
        </mxCell>
        <mxCell id="ucL1FPXEnx8njxg_ZiKC-12" value="" style="html=1;shadow=0;dashed=0;align=center;verticalAlign=middle;shape=mxgraph.arrows2.arrow;dy=0.6;dx=40;direction=south;notch=0;" vertex="1" parent="1">
          <mxGeometry x="-483" y="210" width="65" height="70" as="geometry" />
        </mxCell>
        <mxCell id="ucL1FPXEnx8njxg_ZiKC-13" value="" style="html=1;shadow=0;dashed=0;align=center;verticalAlign=middle;shape=mxgraph.arrows2.arrow;dy=0.6;dx=40;direction=north;notch=0;" vertex="1" parent="1">
          <mxGeometry x="-332.5" y="210" width="70" height="70" as="geometry" />
        </mxCell>
        <mxCell id="ucL1FPXEnx8njxg_ZiKC-14" value="" style="html=1;shadow=0;dashed=0;align=center;verticalAlign=middle;shape=mxgraph.arrows2.arrow;dy=0.6;dx=40;direction=south;notch=0;" vertex="1" parent="1">
          <mxGeometry x="150" y="460" width="65" height="240" as="geometry" />
        </mxCell>
        <mxCell id="ucL1FPXEnx8njxg_ZiKC-15" value="" style="html=1;shadow=0;dashed=0;align=center;verticalAlign=middle;shape=mxgraph.arrows2.arrow;dy=0.6;dx=40;direction=north;notch=0;" vertex="1" parent="1">
          <mxGeometry x="300" y="460" width="70" height="240" as="geometry" />
        </mxCell>
        <mxCell id="ucL1FPXEnx8njxg_ZiKC-20" style="edgeStyle=orthogonalEdgeStyle;rounded=0;orthogonalLoop=1;jettySize=auto;html=1;" edge="1" parent="1" source="dmKvnRU_0-1ShPmuGkLQ-123">
          <mxGeometry relative="1" as="geometry">
            <Array as="points">
              <mxPoint x="1030" y="1170" />
              <mxPoint x="1030" y="600" />
            </Array>
            <mxPoint x="870" y="600" as="targetPoint" />
          </mxGeometry>
        </mxCell>
        <mxCell id="RHMFptx0A2d2b0_hbbHd-1" value="&lt;b&gt;&lt;font color=&quot;#3399ff&quot;&gt;Rest on HTTP&lt;/font&gt;&lt;/b&gt;" style="text;html=1;strokeColor=none;fillColor=none;align=center;verticalAlign=middle;whiteSpace=wrap;rounded=0;" vertex="1" parent="1">
          <mxGeometry x="-437.5" y="320" width="100" height="30" as="geometry" />
        </mxCell>
        <mxCell id="ucL1FPXEnx8njxg_ZiKC-1" value="" style="swimlane;startSize=0;" vertex="1" parent="1">
          <mxGeometry x="-1210" y="350" width="340" height="90" as="geometry" />
        </mxCell>
        <mxCell id="ucL1FPXEnx8njxg_ZiKC-2" value="&lt;span style=&quot;font-size: 18px;&quot;&gt;&lt;b&gt;API REST&lt;/b&gt;&lt;/span&gt;" style="text;html=1;align=center;verticalAlign=middle;resizable=0;points=[];autosize=1;strokeColor=none;fillColor=none;" vertex="1" parent="ucL1FPXEnx8njxg_ZiKC-1">
          <mxGeometry x="110" y="10" width="110" height="40" as="geometry" />
        </mxCell>
        <mxCell id="ucL1FPXEnx8njxg_ZiKC-3" value="rest-net" style="text;html=1;align=center;verticalAlign=middle;resizable=0;points=[];autosize=1;strokeColor=none;fillColor=none;" vertex="1" parent="ucL1FPXEnx8njxg_ZiKC-1">
          <mxGeometry x="130" y="40" width="60" height="30" as="geometry" />
        </mxCell>
        <mxCell id="ucL1FPXEnx8njxg_ZiKC-4" value="C# .NET" style="text;html=1;strokeColor=none;fillColor=none;align=center;verticalAlign=middle;whiteSpace=wrap;rounded=0;fontStyle=1" vertex="1" parent="ucL1FPXEnx8njxg_ZiKC-1">
          <mxGeometry x="280" y="60" width="60" height="30" as="geometry" />
        </mxCell>
        <mxCell id="OqxBm7WKAcfe3fQYMVci-2" value="" style="html=1;shadow=0;dashed=0;align=center;verticalAlign=middle;shape=mxgraph.arrows2.arrow;dy=0.6;dx=40;direction=south;notch=0;" vertex="1" parent="1">
          <mxGeometry x="-1140" y="460" width="65" height="100" as="geometry" />
        </mxCell>
        <mxCell id="OqxBm7WKAcfe3fQYMVci-3" value="" style="html=1;shadow=0;dashed=0;align=center;verticalAlign=middle;shape=mxgraph.arrows2.arrow;dy=0.6;dx=40;direction=north;notch=0;" vertex="1" parent="1">
          <mxGeometry x="-1010" y="460" width="70" height="100" as="geometry" />
        </mxCell>
        <mxCell id="OqxBm7WKAcfe3fQYMVci-5" value="" style="html=1;shadow=0;dashed=0;align=center;verticalAlign=middle;shape=mxgraph.arrows2.arrow;dy=0.6;dx=40;direction=south;notch=0;" vertex="1" parent="1">
          <mxGeometry x="-1130" y="210" width="65" height="70" as="geometry" />
        </mxCell>
        <mxCell id="OqxBm7WKAcfe3fQYMVci-6" value="" style="html=1;shadow=0;dashed=0;align=center;verticalAlign=middle;shape=mxgraph.arrows2.arrow;dy=0.6;dx=40;direction=north;notch=0;" vertex="1" parent="1">
          <mxGeometry x="-1010" y="210" width="70" height="70" as="geometry" />
        </mxCell>
      </root>
    </mxGraphModel>
  </diagram>
  <diagram name="TP2" id="ULYm6YSzDTMxILv5D7s9">
    <mxGraphModel grid="1" page="1" gridSize="10" guides="1" tooltips="1" connect="1" arrows="1" fold="1" pageScale="1" pageWidth="827" pageHeight="1169" math="0" shadow="0">
      <root>
        <mxCell id="E01IVpXLu5MbC0q44NuO-0" />
        <mxCell id="E01IVpXLu5MbC0q44NuO-1" parent="E01IVpXLu5MbC0q44NuO-0" />
        <mxCell id="E01IVpXLu5MbC0q44NuO-2" value="" style="swimlane;startSize=0;" vertex="1" parent="E01IVpXLu5MbC0q44NuO-1">
          <mxGeometry x="200" y="150.43" width="400" height="90" as="geometry" />
        </mxCell>
        <mxCell id="E01IVpXLu5MbC0q44NuO-3" value="&lt;font style=&quot;font-size: 18px;&quot;&gt;&lt;b&gt;Front-end&lt;/b&gt;&lt;/font&gt;" style="text;html=1;align=center;verticalAlign=middle;resizable=0;points=[];autosize=1;strokeColor=none;fillColor=none;" vertex="1" parent="E01IVpXLu5MbC0q44NuO-2">
          <mxGeometry x="130" width="110" height="40" as="geometry" />
        </mxCell>
        <mxCell id="E01IVpXLu5MbC0q44NuO-4" value="grpc-frontend-react" style="text;html=1;align=center;verticalAlign=middle;resizable=0;points=[];autosize=1;strokeColor=none;fillColor=none;" vertex="1" parent="E01IVpXLu5MbC0q44NuO-2">
          <mxGeometry x="120" y="30" width="130" height="30" as="geometry" />
        </mxCell>
        <mxCell id="E01IVpXLu5MbC0q44NuO-5" value="React.js" style="text;html=1;strokeColor=none;fillColor=none;align=center;verticalAlign=middle;whiteSpace=wrap;rounded=0;fontStyle=1" vertex="1" parent="E01IVpXLu5MbC0q44NuO-2">
          <mxGeometry x="340" y="60" width="60" height="30" as="geometry" />
        </mxCell>
        <mxCell id="E01IVpXLu5MbC0q44NuO-6" value="" style="swimlane;startSize=0;" vertex="1" parent="E01IVpXLu5MbC0q44NuO-1">
          <mxGeometry x="200" y="390" width="400" height="90" as="geometry" />
        </mxCell>
        <mxCell id="E01IVpXLu5MbC0q44NuO-7" value="&lt;span style=&quot;font-size: 18px;&quot;&gt;&lt;b&gt;Back-end Cliente&lt;/b&gt;&lt;/span&gt;" style="text;html=1;align=center;verticalAlign=middle;resizable=0;points=[];autosize=1;strokeColor=none;fillColor=none;" vertex="1" parent="E01IVpXLu5MbC0q44NuO-6">
          <mxGeometry x="110" width="170" height="40" as="geometry" />
        </mxCell>
        <mxCell id="E01IVpXLu5MbC0q44NuO-8" value="grpc-client-net" style="text;html=1;align=center;verticalAlign=middle;resizable=0;points=[];autosize=1;strokeColor=none;fillColor=none;" vertex="1" parent="E01IVpXLu5MbC0q44NuO-6">
          <mxGeometry x="145" y="30" width="100" height="30" as="geometry" />
        </mxCell>
        <mxCell id="E01IVpXLu5MbC0q44NuO-9" value="C# .NET" style="text;html=1;strokeColor=none;fillColor=none;align=center;verticalAlign=middle;whiteSpace=wrap;rounded=0;fontStyle=1" vertex="1" parent="E01IVpXLu5MbC0q44NuO-6">
          <mxGeometry x="340" y="60" width="60" height="30" as="geometry" />
        </mxCell>
        <mxCell id="E01IVpXLu5MbC0q44NuO-10" style="edgeStyle=orthogonalEdgeStyle;shape=connector;rounded=0;orthogonalLoop=1;jettySize=auto;html=1;entryX=1;entryY=0.75;entryDx=0;entryDy=0;labelBackgroundColor=default;strokeColor=default;fontFamily=Helvetica;fontSize=11;fontColor=default;endArrow=classic;" edge="1" parent="E01IVpXLu5MbC0q44NuO-1" source="E01IVpXLu5MbC0q44NuO-13" target="E01IVpXLu5MbC0q44NuO-42">
          <mxGeometry relative="1" as="geometry" />
        </mxCell>
        <mxCell id="E01IVpXLu5MbC0q44NuO-11" style="edgeStyle=orthogonalEdgeStyle;shape=connector;rounded=0;orthogonalLoop=1;jettySize=auto;html=1;exitX=0.101;exitY=1.003;exitDx=0;exitDy=0;entryX=1;entryY=0.5;entryDx=0;entryDy=0;labelBackgroundColor=default;strokeColor=default;fontFamily=Helvetica;fontSize=11;fontColor=default;endArrow=classic;exitPerimeter=0;" edge="1" parent="E01IVpXLu5MbC0q44NuO-1" source="E01IVpXLu5MbC0q44NuO-13" target="E01IVpXLu5MbC0q44NuO-60">
          <mxGeometry relative="1" as="geometry" />
        </mxCell>
        <mxCell id="E01IVpXLu5MbC0q44NuO-12" style="edgeStyle=orthogonalEdgeStyle;shape=connector;rounded=0;orthogonalLoop=1;jettySize=auto;html=1;exitX=0.178;exitY=1.002;exitDx=0;exitDy=0;entryX=1;entryY=0.5;entryDx=0;entryDy=0;labelBackgroundColor=default;strokeColor=default;fontFamily=Helvetica;fontSize=11;fontColor=default;endArrow=classic;exitPerimeter=0;" edge="1" parent="E01IVpXLu5MbC0q44NuO-1" source="E01IVpXLu5MbC0q44NuO-13" target="E01IVpXLu5MbC0q44NuO-64">
          <mxGeometry relative="1" as="geometry" />
        </mxCell>
        <mxCell id="E01IVpXLu5MbC0q44NuO-13" value="" style="swimlane;startSize=0;" vertex="1" parent="E01IVpXLu5MbC0q44NuO-1">
          <mxGeometry x="200" y="630" width="400" height="90" as="geometry" />
        </mxCell>
        <mxCell id="E01IVpXLu5MbC0q44NuO-14" value="&lt;span style=&quot;font-size: 18px;&quot;&gt;&lt;b&gt;Back-end Servidor&lt;/b&gt;&lt;/span&gt;" style="text;html=1;align=center;verticalAlign=middle;resizable=0;points=[];autosize=1;strokeColor=none;fillColor=none;" vertex="1" parent="E01IVpXLu5MbC0q44NuO-13">
          <mxGeometry x="105" width="180" height="40" as="geometry" />
        </mxCell>
        <mxCell id="E01IVpXLu5MbC0q44NuO-15" value="grpc-server-java" style="text;html=1;align=center;verticalAlign=middle;resizable=0;points=[];autosize=1;strokeColor=none;fillColor=none;" vertex="1" parent="E01IVpXLu5MbC0q44NuO-13">
          <mxGeometry x="140" y="30" width="110" height="30" as="geometry" />
        </mxCell>
        <mxCell id="E01IVpXLu5MbC0q44NuO-16" value="Java maven" style="text;html=1;strokeColor=none;fillColor=none;align=center;verticalAlign=middle;whiteSpace=wrap;rounded=0;fontStyle=1" vertex="1" parent="E01IVpXLu5MbC0q44NuO-13">
          <mxGeometry x="320" y="60" width="80" height="30" as="geometry" />
        </mxCell>
        <mxCell id="E01IVpXLu5MbC0q44NuO-17" style="edgeStyle=orthogonalEdgeStyle;shape=connector;rounded=0;orthogonalLoop=1;jettySize=auto;html=1;entryX=0.5;entryY=0;entryDx=0;entryDy=0;labelBackgroundColor=default;strokeColor=default;fontFamily=Helvetica;fontSize=11;fontColor=default;endArrow=classic;" edge="1" parent="E01IVpXLu5MbC0q44NuO-1" source="E01IVpXLu5MbC0q44NuO-21" target="E01IVpXLu5MbC0q44NuO-34">
          <mxGeometry relative="1" as="geometry" />
        </mxCell>
        <mxCell id="E01IVpXLu5MbC0q44NuO-18" style="edgeStyle=orthogonalEdgeStyle;shape=connector;rounded=0;orthogonalLoop=1;jettySize=auto;html=1;exitX=0.25;exitY=1;exitDx=0;exitDy=0;entryX=0.555;entryY=0.043;entryDx=0;entryDy=0;entryPerimeter=0;labelBackgroundColor=default;strokeColor=default;fontFamily=Helvetica;fontSize=11;fontColor=default;endArrow=classic;" edge="1" parent="E01IVpXLu5MbC0q44NuO-1" source="E01IVpXLu5MbC0q44NuO-21" target="E01IVpXLu5MbC0q44NuO-36">
          <mxGeometry relative="1" as="geometry" />
        </mxCell>
        <mxCell id="E01IVpXLu5MbC0q44NuO-19" style="edgeStyle=orthogonalEdgeStyle;shape=connector;rounded=0;orthogonalLoop=1;jettySize=auto;html=1;exitX=0.75;exitY=1;exitDx=0;exitDy=0;entryX=0.75;entryY=0;entryDx=0;entryDy=0;labelBackgroundColor=default;strokeColor=default;fontFamily=Helvetica;fontSize=11;fontColor=default;endArrow=classic;" edge="1" parent="E01IVpXLu5MbC0q44NuO-1" source="E01IVpXLu5MbC0q44NuO-21" target="E01IVpXLu5MbC0q44NuO-37">
          <mxGeometry relative="1" as="geometry" />
        </mxCell>
        <mxCell id="E01IVpXLu5MbC0q44NuO-20" style="edgeStyle=orthogonalEdgeStyle;shape=connector;rounded=0;orthogonalLoop=1;jettySize=auto;html=1;exitX=1;exitY=0.5;exitDx=0;exitDy=0;entryX=0.5;entryY=0;entryDx=0;entryDy=0;labelBackgroundColor=default;strokeColor=default;fontFamily=Helvetica;fontSize=11;fontColor=default;endArrow=classic;" edge="1" parent="E01IVpXLu5MbC0q44NuO-1" source="E01IVpXLu5MbC0q44NuO-21" target="E01IVpXLu5MbC0q44NuO-35">
          <mxGeometry relative="1" as="geometry" />
        </mxCell>
        <mxCell id="E01IVpXLu5MbC0q44NuO-21" value="" style="swimlane;startSize=0;" vertex="1" parent="E01IVpXLu5MbC0q44NuO-1">
          <mxGeometry x="-420" y="150.43" width="390" height="90" as="geometry" />
        </mxCell>
        <mxCell id="E01IVpXLu5MbC0q44NuO-22" value="&lt;span style=&quot;font-size: 18px;&quot;&gt;&lt;b&gt;Back-end Kafka&lt;/b&gt;&lt;/span&gt;" style="text;html=1;align=center;verticalAlign=middle;resizable=0;points=[];autosize=1;strokeColor=none;fillColor=none;" vertex="1" parent="E01IVpXLu5MbC0q44NuO-21">
          <mxGeometry x="115" y="10" width="160" height="40" as="geometry" />
        </mxCell>
        <mxCell id="E01IVpXLu5MbC0q44NuO-23" value="kafka-node" style="text;html=1;align=center;verticalAlign=middle;resizable=0;points=[];autosize=1;strokeColor=none;fillColor=none;" vertex="1" parent="E01IVpXLu5MbC0q44NuO-21">
          <mxGeometry x="155" y="39.57" width="80" height="30" as="geometry" />
        </mxCell>
        <mxCell id="E01IVpXLu5MbC0q44NuO-24" value="Node.js" style="text;html=1;strokeColor=none;fillColor=none;align=center;verticalAlign=middle;whiteSpace=wrap;rounded=0;fontStyle=1" vertex="1" parent="E01IVpXLu5MbC0q44NuO-21">
          <mxGeometry x="320" y="50" width="60" height="30" as="geometry" />
        </mxCell>
        <mxCell id="E01IVpXLu5MbC0q44NuO-25" value="" style="shape=link;html=1;rounded=0;fillColor=#dae8fc;strokeColor=#6c8ebf;" edge="1" parent="E01IVpXLu5MbC0q44NuO-1">
          <mxGeometry relative="1" as="geometry">
            <mxPoint x="200" y="350" as="sourcePoint" />
            <mxPoint x="600" y="350" as="targetPoint" />
          </mxGeometry>
        </mxCell>
        <mxCell id="E01IVpXLu5MbC0q44NuO-26" value="" style="resizable=0;html=1;whiteSpace=wrap;align=right;verticalAlign=bottom;fontStyle=1" connectable="0" vertex="1" parent="E01IVpXLu5MbC0q44NuO-25">
          <mxGeometry x="1" relative="1" as="geometry">
            <mxPoint x="-30" as="offset" />
          </mxGeometry>
        </mxCell>
        <mxCell id="E01IVpXLu5MbC0q44NuO-27" value="&lt;b&gt;&lt;font color=&quot;#3399ff&quot;&gt;Rest on HTTP&lt;/font&gt;&lt;/b&gt;" style="text;html=1;strokeColor=none;fillColor=none;align=center;verticalAlign=middle;whiteSpace=wrap;rounded=0;" vertex="1" parent="E01IVpXLu5MbC0q44NuO-1">
          <mxGeometry x="340" y="350" width="100" height="30" as="geometry" />
        </mxCell>
        <mxCell id="E01IVpXLu5MbC0q44NuO-28" value="" style="shape=link;html=1;rounded=0;fillColor=#f8cecc;strokeColor=#b85450;" edge="1" parent="E01IVpXLu5MbC0q44NuO-1">
          <mxGeometry relative="1" as="geometry">
            <mxPoint x="200" y="590" as="sourcePoint" />
            <mxPoint x="600" y="590" as="targetPoint" />
          </mxGeometry>
        </mxCell>
        <mxCell id="E01IVpXLu5MbC0q44NuO-29" value="" style="resizable=0;html=1;whiteSpace=wrap;align=right;verticalAlign=bottom;fontStyle=1" connectable="0" vertex="1" parent="E01IVpXLu5MbC0q44NuO-28">
          <mxGeometry x="1" relative="1" as="geometry">
            <mxPoint x="-30" as="offset" />
          </mxGeometry>
        </mxCell>
        <mxCell id="E01IVpXLu5MbC0q44NuO-30" value="&lt;b&gt;&lt;font color=&quot;#ff3333&quot;&gt;gRPC on HTTP/2&lt;/font&gt;&lt;/b&gt;" style="text;html=1;strokeColor=none;fillColor=none;align=center;verticalAlign=middle;whiteSpace=wrap;rounded=0;" vertex="1" parent="E01IVpXLu5MbC0q44NuO-1">
          <mxGeometry x="340" y="590" width="100" height="30" as="geometry" />
        </mxCell>
        <mxCell id="E01IVpXLu5MbC0q44NuO-31" value="" style="shape=link;html=1;rounded=0;fillColor=#dae8fc;strokeColor=#6c8ebf;" edge="1" parent="E01IVpXLu5MbC0q44NuO-1">
          <mxGeometry relative="1" as="geometry">
            <mxPoint x="40" y="150" as="sourcePoint" />
            <mxPoint x="40" y="240" as="targetPoint" />
          </mxGeometry>
        </mxCell>
        <mxCell id="E01IVpXLu5MbC0q44NuO-32" value="" style="resizable=0;html=1;whiteSpace=wrap;align=right;verticalAlign=bottom;fontStyle=1" connectable="0" vertex="1" parent="E01IVpXLu5MbC0q44NuO-31">
          <mxGeometry x="1" relative="1" as="geometry">
            <mxPoint x="-30" as="offset" />
          </mxGeometry>
        </mxCell>
        <mxCell id="E01IVpXLu5MbC0q44NuO-33" value="&lt;b&gt;&lt;font color=&quot;#3399ff&quot;&gt;Rest on HTTP&lt;/font&gt;&lt;/b&gt;" style="text;html=1;strokeColor=none;fillColor=none;align=center;verticalAlign=middle;whiteSpace=wrap;rounded=0;rotation=90;" vertex="1" parent="E01IVpXLu5MbC0q44NuO-1">
          <mxGeometry x="-20" y="180" width="100" height="30" as="geometry" />
        </mxCell>
        <mxCell id="E01IVpXLu5MbC0q44NuO-34" value="&lt;b&gt;Producer&lt;/b&gt;" style="rounded=0;whiteSpace=wrap;html=1;fillColor=#b0e3e6;strokeColor=#0e8088;" vertex="1" parent="E01IVpXLu5MbC0q44NuO-1">
          <mxGeometry x="-580" y="280" width="140" height="60" as="geometry" />
        </mxCell>
        <mxCell id="E01IVpXLu5MbC0q44NuO-35" value="&lt;b&gt;Consumer&lt;/b&gt;" style="rounded=0;whiteSpace=wrap;html=1;fillColor=#d0cee2;strokeColor=#56517e;" vertex="1" parent="E01IVpXLu5MbC0q44NuO-1">
          <mxGeometry x="-60" y="280" width="140" height="60" as="geometry" />
        </mxCell>
        <mxCell id="E01IVpXLu5MbC0q44NuO-36" value="&lt;b&gt;Producer&lt;/b&gt;" style="rounded=0;whiteSpace=wrap;html=1;fillColor=#b0e3e6;strokeColor=#0e8088;" vertex="1" parent="E01IVpXLu5MbC0q44NuO-1">
          <mxGeometry x="-400" y="280" width="140" height="60" as="geometry" />
        </mxCell>
        <mxCell id="E01IVpXLu5MbC0q44NuO-37" value="&lt;b&gt;Producer&lt;/b&gt;" style="rounded=0;whiteSpace=wrap;html=1;fillColor=#b0e3e6;strokeColor=#0e8088;" vertex="1" parent="E01IVpXLu5MbC0q44NuO-1">
          <mxGeometry x="-230" y="280" width="140" height="60" as="geometry" />
        </mxCell>
        <mxCell id="E01IVpXLu5MbC0q44NuO-38" value="&lt;b&gt;TOPICO: &quot;PopularidadUsuario&quot;&lt;/b&gt;" style="rounded=0;whiteSpace=wrap;html=1;fillColor=#fad7ac;strokeColor=#b46504;" vertex="1" parent="E01IVpXLu5MbC0q44NuO-1">
          <mxGeometry x="-400" y="460" width="140" height="60" as="geometry" />
        </mxCell>
        <mxCell id="E01IVpXLu5MbC0q44NuO-39" value="&lt;b&gt;TOPICO: &quot;PopularidadReceta&quot;&lt;/b&gt;" style="rounded=0;whiteSpace=wrap;html=1;fillColor=#fad7ac;strokeColor=#b46504;" vertex="1" parent="E01IVpXLu5MbC0q44NuO-1">
          <mxGeometry x="-230" y="460" width="140" height="60" as="geometry" />
        </mxCell>
        <mxCell id="E01IVpXLu5MbC0q44NuO-40" value="&lt;b&gt;TOPICO: &lt;br&gt;&quot;Comentarios&quot;&lt;/b&gt;" style="rounded=0;whiteSpace=wrap;html=1;fillColor=#fad7ac;strokeColor=#b46504;" vertex="1" parent="E01IVpXLu5MbC0q44NuO-1">
          <mxGeometry x="-580" y="460" width="140" height="60" as="geometry" />
        </mxCell>
        <mxCell id="E01IVpXLu5MbC0q44NuO-41" value="&lt;b&gt;TOPICO: &lt;br&gt;&quot;Novedades&quot;&lt;/b&gt;" style="rounded=0;whiteSpace=wrap;html=1;fillColor=#fad7ac;strokeColor=#b46504;" vertex="1" parent="E01IVpXLu5MbC0q44NuO-1">
          <mxGeometry x="-60" y="460" width="140" height="60" as="geometry" />
        </mxCell>
        <mxCell id="E01IVpXLu5MbC0q44NuO-42" value="&lt;b&gt;Producer&lt;/b&gt;" style="rounded=0;whiteSpace=wrap;html=1;fillColor=#b0e3e6;strokeColor=#0e8088;" vertex="1" parent="E01IVpXLu5MbC0q44NuO-1">
          <mxGeometry x="-60" y="630" width="140" height="60" as="geometry" />
        </mxCell>
        <mxCell id="E01IVpXLu5MbC0q44NuO-43" value="" style="html=1;shadow=0;dashed=0;align=center;verticalAlign=middle;shape=mxgraph.arrows2.arrow;dy=0.6;dx=40;direction=south;notch=0;" vertex="1" parent="E01IVpXLu5MbC0q44NuO-1">
          <mxGeometry x="-545" y="350" width="65" height="70" as="geometry" />
        </mxCell>
        <mxCell id="E01IVpXLu5MbC0q44NuO-44" value="" style="html=1;shadow=0;dashed=0;align=center;verticalAlign=middle;shape=mxgraph.arrows2.arrow;dy=0.6;dx=40;direction=south;notch=0;" vertex="1" parent="E01IVpXLu5MbC0q44NuO-1">
          <mxGeometry x="-362.5" y="350" width="65" height="70" as="geometry" />
        </mxCell>
        <mxCell id="E01IVpXLu5MbC0q44NuO-45" value="" style="html=1;shadow=0;dashed=0;align=center;verticalAlign=middle;shape=mxgraph.arrows2.arrow;dy=0.6;dx=40;direction=south;notch=0;" vertex="1" parent="E01IVpXLu5MbC0q44NuO-1">
          <mxGeometry x="-192.5" y="350" width="65" height="70" as="geometry" />
        </mxCell>
        <mxCell id="E01IVpXLu5MbC0q44NuO-46" value="" style="html=1;shadow=0;dashed=0;align=center;verticalAlign=middle;shape=mxgraph.arrows2.arrow;dy=0.6;dx=40;direction=south;notch=0;" vertex="1" parent="E01IVpXLu5MbC0q44NuO-1">
          <mxGeometry x="-545" y="560" width="65" height="240" as="geometry" />
        </mxCell>
        <mxCell id="E01IVpXLu5MbC0q44NuO-47" value="" style="html=1;shadow=0;dashed=0;align=center;verticalAlign=middle;shape=mxgraph.arrows2.arrow;dy=0.6;dx=40;direction=south;notch=0;" vertex="1" parent="E01IVpXLu5MbC0q44NuO-1">
          <mxGeometry x="-362.5" y="560" width="65" height="180" as="geometry" />
        </mxCell>
        <mxCell id="E01IVpXLu5MbC0q44NuO-48" value="" style="html=1;shadow=0;dashed=0;align=center;verticalAlign=middle;shape=mxgraph.arrows2.arrow;dy=0.6;dx=40;direction=south;notch=0;" vertex="1" parent="E01IVpXLu5MbC0q44NuO-1">
          <mxGeometry x="-192.5" y="560" width="65" height="120" as="geometry" />
        </mxCell>
        <mxCell id="E01IVpXLu5MbC0q44NuO-49" value="" style="html=1;shadow=0;dashed=0;align=center;verticalAlign=middle;shape=mxgraph.arrows2.arrow;dy=0.6;dx=40;direction=north;notch=0;" vertex="1" parent="E01IVpXLu5MbC0q44NuO-1">
          <mxGeometry x="-25" y="560" width="70" height="60" as="geometry" />
        </mxCell>
        <mxCell id="E01IVpXLu5MbC0q44NuO-50" value="" style="html=1;shadow=0;dashed=0;align=center;verticalAlign=middle;shape=mxgraph.arrows2.arrow;dy=0.6;dx=40;direction=north;notch=0;" vertex="1" parent="E01IVpXLu5MbC0q44NuO-1">
          <mxGeometry x="-25" y="350" width="70" height="70" as="geometry" />
        </mxCell>
        <mxCell id="E01IVpXLu5MbC0q44NuO-51" value="" style="rounded=0;whiteSpace=wrap;html=1;fontFamily=Helvetica;fontSize=11;fillColor=none;" vertex="1" parent="E01IVpXLu5MbC0q44NuO-1">
          <mxGeometry x="-620" y="430" width="740" height="120" as="geometry" />
        </mxCell>
        <mxCell id="E01IVpXLu5MbC0q44NuO-52" value="Kafka" style="text;html=1;strokeColor=none;fillColor=none;align=center;verticalAlign=middle;whiteSpace=wrap;rounded=0;fontStyle=1" vertex="1" parent="E01IVpXLu5MbC0q44NuO-1">
          <mxGeometry x="-620" y="520" width="60" height="30" as="geometry" />
        </mxCell>
        <mxCell id="E01IVpXLu5MbC0q44NuO-53" value="" style="html=1;shadow=0;dashed=0;align=center;verticalAlign=middle;shape=mxgraph.arrows2.arrow;dy=0.6;dx=40;direction=south;notch=0;" vertex="1" parent="E01IVpXLu5MbC0q44NuO-1">
          <mxGeometry x="271.25" y="500" width="65" height="70" as="geometry" />
        </mxCell>
        <mxCell id="E01IVpXLu5MbC0q44NuO-54" value="" style="html=1;shadow=0;dashed=0;align=center;verticalAlign=middle;shape=mxgraph.arrows2.arrow;dy=0.6;dx=40;direction=north;notch=0;" vertex="1" parent="E01IVpXLu5MbC0q44NuO-1">
          <mxGeometry x="438.75" y="500" width="70" height="70" as="geometry" />
        </mxCell>
        <mxCell id="E01IVpXLu5MbC0q44NuO-55" value="" style="html=1;shadow=0;dashed=0;align=center;verticalAlign=middle;shape=mxgraph.arrows2.arrow;dy=0.6;dx=40;direction=south;notch=0;" vertex="1" parent="E01IVpXLu5MbC0q44NuO-1">
          <mxGeometry x="271.25" y="250" width="65" height="70" as="geometry" />
        </mxCell>
        <mxCell id="E01IVpXLu5MbC0q44NuO-56" value="" style="html=1;shadow=0;dashed=0;align=center;verticalAlign=middle;shape=mxgraph.arrows2.arrow;dy=0.6;dx=40;direction=north;notch=0;" vertex="1" parent="E01IVpXLu5MbC0q44NuO-1">
          <mxGeometry x="438.75" y="250" width="70" height="70" as="geometry" />
        </mxCell>
        <mxCell id="E01IVpXLu5MbC0q44NuO-57" value="" style="shape=singleArrow;direction=north;whiteSpace=wrap;html=1;fontFamily=Helvetica;fontSize=11;fontColor=default;rotation=-90;" vertex="1" parent="E01IVpXLu5MbC0q44NuO-1">
          <mxGeometry x="110" y="120" width="40" height="80" as="geometry" />
        </mxCell>
        <mxCell id="E01IVpXLu5MbC0q44NuO-58" value="" style="shape=singleArrow;direction=north;whiteSpace=wrap;html=1;fontFamily=Helvetica;fontSize=11;fontColor=default;rotation=90;" vertex="1" parent="E01IVpXLu5MbC0q44NuO-1">
          <mxGeometry x="110" y="180" width="40" height="80" as="geometry" />
        </mxCell>
        <mxCell id="E01IVpXLu5MbC0q44NuO-59" style="edgeStyle=orthogonalEdgeStyle;shape=connector;rounded=0;orthogonalLoop=1;jettySize=auto;html=1;entryX=0.5;entryY=1;entryDx=0;entryDy=0;labelBackgroundColor=default;strokeColor=default;fontFamily=Helvetica;fontSize=11;fontColor=default;endArrow=classic;" edge="1" parent="E01IVpXLu5MbC0q44NuO-1" source="E01IVpXLu5MbC0q44NuO-60" target="E01IVpXLu5MbC0q44NuO-61">
          <mxGeometry relative="1" as="geometry" />
        </mxCell>
        <mxCell id="E01IVpXLu5MbC0q44NuO-60" value="&lt;b&gt;Tarea programada&lt;/b&gt;" style="rounded=0;whiteSpace=wrap;html=1;fillColor=#bac8d3;strokeColor=#23445d;" vertex="1" parent="E01IVpXLu5MbC0q44NuO-1">
          <mxGeometry x="-60" y="770" width="140" height="60" as="geometry" />
        </mxCell>
        <mxCell id="E01IVpXLu5MbC0q44NuO-61" value="&lt;b&gt;Consumer&lt;/b&gt;" style="rounded=0;whiteSpace=wrap;html=1;fillColor=#d0cee2;strokeColor=#56517e;" vertex="1" parent="E01IVpXLu5MbC0q44NuO-1">
          <mxGeometry x="-220" y="690" width="140" height="60" as="geometry" />
        </mxCell>
        <mxCell id="E01IVpXLu5MbC0q44NuO-62" value="&lt;b&gt;Consumer&lt;/b&gt;" style="rounded=0;whiteSpace=wrap;html=1;fillColor=#d0cee2;strokeColor=#56517e;" vertex="1" parent="E01IVpXLu5MbC0q44NuO-1">
          <mxGeometry x="-400" y="750" width="140" height="60" as="geometry" />
        </mxCell>
        <mxCell id="E01IVpXLu5MbC0q44NuO-63" style="edgeStyle=orthogonalEdgeStyle;shape=connector;rounded=0;orthogonalLoop=1;jettySize=auto;html=1;exitX=0;exitY=0.5;exitDx=0;exitDy=0;entryX=0.5;entryY=1;entryDx=0;entryDy=0;labelBackgroundColor=default;strokeColor=default;fontFamily=Helvetica;fontSize=11;fontColor=default;endArrow=classic;" edge="1" parent="E01IVpXLu5MbC0q44NuO-1" source="E01IVpXLu5MbC0q44NuO-64" target="E01IVpXLu5MbC0q44NuO-62">
          <mxGeometry relative="1" as="geometry" />
        </mxCell>
        <mxCell id="E01IVpXLu5MbC0q44NuO-64" value="&lt;b&gt;Tarea programada&lt;/b&gt;" style="rounded=0;whiteSpace=wrap;html=1;fillColor=#bac8d3;strokeColor=#23445d;" vertex="1" parent="E01IVpXLu5MbC0q44NuO-1">
          <mxGeometry x="-60" y="850" width="140" height="60" as="geometry" />
        </mxCell>
        <mxCell id="E01IVpXLu5MbC0q44NuO-65" style="edgeStyle=orthogonalEdgeStyle;shape=connector;rounded=0;orthogonalLoop=1;jettySize=auto;html=1;exitX=0;exitY=0.5;exitDx=0;exitDy=0;entryX=0.5;entryY=1;entryDx=0;entryDy=0;labelBackgroundColor=default;strokeColor=default;fontFamily=Helvetica;fontSize=11;fontColor=default;endArrow=classic;" edge="1" parent="E01IVpXLu5MbC0q44NuO-1" source="E01IVpXLu5MbC0q44NuO-66" target="E01IVpXLu5MbC0q44NuO-67">
          <mxGeometry relative="1" as="geometry" />
        </mxCell>
        <mxCell id="E01IVpXLu5MbC0q44NuO-66" value="&lt;b&gt;Tarea programada&lt;/b&gt;" style="rounded=0;whiteSpace=wrap;html=1;fillColor=#bac8d3;strokeColor=#23445d;" vertex="1" parent="E01IVpXLu5MbC0q44NuO-1">
          <mxGeometry x="-60" y="930" width="140" height="60" as="geometry" />
        </mxCell>
        <mxCell id="E01IVpXLu5MbC0q44NuO-67" value="&lt;b&gt;Consumer&lt;/b&gt;" style="rounded=0;whiteSpace=wrap;html=1;fillColor=#d0cee2;strokeColor=#56517e;" vertex="1" parent="E01IVpXLu5MbC0q44NuO-1">
          <mxGeometry x="-580" y="810" width="140" height="60" as="geometry" />
        </mxCell>
        <mxCell id="E01IVpXLu5MbC0q44NuO-68" style="edgeStyle=orthogonalEdgeStyle;shape=connector;rounded=0;orthogonalLoop=1;jettySize=auto;html=1;labelBackgroundColor=default;strokeColor=default;fontFamily=Helvetica;fontSize=11;fontColor=default;endArrow=classic;entryX=1;entryY=0.5;entryDx=0;entryDy=0;exitX=0.25;exitY=1;exitDx=0;exitDy=0;" edge="1" parent="E01IVpXLu5MbC0q44NuO-1" target="E01IVpXLu5MbC0q44NuO-66">
          <mxGeometry relative="1" as="geometry">
            <mxPoint x="30" y="959.8000000000001" as="targetPoint" />
            <mxPoint x="250" y="720.2" as="sourcePoint" />
            <Array as="points">
              <mxPoint x="300" y="720" />
              <mxPoint x="300" y="960" />
            </Array>
          </mxGeometry>
        </mxCell>
        <mxCell id="E01IVpXLu5MbC0q44NuO-69" value="&lt;b&gt;&lt;font color=&quot;#cc99ff&quot;&gt;JPA&lt;/font&gt;&lt;/b&gt;" style="text;html=1;strokeColor=none;fillColor=none;align=center;verticalAlign=middle;whiteSpace=wrap;rounded=0;rotation=0;" vertex="1" parent="E01IVpXLu5MbC0q44NuO-1">
          <mxGeometry x="408.75" y="720" width="100" height="30" as="geometry" />
        </mxCell>
        <mxCell id="E01IVpXLu5MbC0q44NuO-70" value="" style="swimlane;startSize=0;" vertex="1" parent="E01IVpXLu5MbC0q44NuO-1">
          <mxGeometry x="330" y="770" width="266.25" height="90" as="geometry" />
        </mxCell>
        <mxCell id="E01IVpXLu5MbC0q44NuO-71" value="&lt;span style=&quot;font-size: 18px;&quot;&gt;&lt;b&gt;Base de datos&lt;/b&gt;&lt;/span&gt;" style="text;html=1;align=center;verticalAlign=middle;resizable=0;points=[];autosize=1;strokeColor=none;fillColor=none;" vertex="1" parent="E01IVpXLu5MbC0q44NuO-70">
          <mxGeometry x="58.13" width="150" height="40" as="geometry" />
        </mxCell>
        <mxCell id="E01IVpXLu5MbC0q44NuO-72" value="relacional" style="text;html=1;align=center;verticalAlign=middle;resizable=0;points=[];autosize=1;strokeColor=none;fillColor=none;" vertex="1" parent="E01IVpXLu5MbC0q44NuO-70">
          <mxGeometry x="90" y="30" width="70" height="30" as="geometry" />
        </mxCell>
        <mxCell id="E01IVpXLu5MbC0q44NuO-73" value="MySQL" style="text;html=1;strokeColor=none;fillColor=none;align=center;verticalAlign=middle;whiteSpace=wrap;rounded=0;fontStyle=1" vertex="1" parent="E01IVpXLu5MbC0q44NuO-70">
          <mxGeometry x="186.25" y="60" width="80" height="30" as="geometry" />
        </mxCell>
        <mxCell id="E01IVpXLu5MbC0q44NuO-74" value="" style="shape=link;html=1;rounded=0;labelBackgroundColor=default;strokeColor=#9673a6;fontFamily=Helvetica;fontSize=11;fontColor=default;endArrow=classic;fillColor=#e1d5e7;" edge="1" parent="E01IVpXLu5MbC0q44NuO-1">
          <mxGeometry relative="1" as="geometry">
            <mxPoint x="330" y="750" as="sourcePoint" />
            <mxPoint x="600" y="750" as="targetPoint" />
          </mxGeometry>
        </mxCell>
        <mxCell id="E01IVpXLu5MbC0q44NuO-75" value="" style="resizable=0;html=1;whiteSpace=wrap;align=right;verticalAlign=bottom;fontFamily=Helvetica;fontSize=11;fontColor=default;" connectable="0" vertex="1" parent="E01IVpXLu5MbC0q44NuO-74">
          <mxGeometry x="1" relative="1" as="geometry" />
        </mxCell>
      </root>
    </mxGraphModel>
  </diagram>
  <diagram name="TP1" id="9ofZG7bKU71bzF5edRp4">
    <mxGraphModel grid="1" page="1" gridSize="10" guides="1" tooltips="1" connect="1" arrows="1" fold="1" pageScale="1" pageWidth="827" pageHeight="1169" math="0" shadow="0">
      <root>
        <mxCell id="1Nxv9kPVLoMWar8YV7XD-0" />
        <mxCell id="1Nxv9kPVLoMWar8YV7XD-1" parent="1Nxv9kPVLoMWar8YV7XD-0" />
        <mxCell id="1Nxv9kPVLoMWar8YV7XD-2" value="" style="swimlane;startSize=0;" parent="1Nxv9kPVLoMWar8YV7XD-1" vertex="1">
          <mxGeometry x="214" y="230" width="400" height="90" as="geometry" />
        </mxCell>
        <mxCell id="1Nxv9kPVLoMWar8YV7XD-3" value="&lt;font style=&quot;font-size: 18px;&quot;&gt;&lt;b&gt;Front-end&lt;/b&gt;&lt;/font&gt;" style="text;html=1;align=center;verticalAlign=middle;resizable=0;points=[];autosize=1;strokeColor=none;fillColor=none;" parent="1Nxv9kPVLoMWar8YV7XD-2" vertex="1">
          <mxGeometry x="130" width="110" height="40" as="geometry" />
        </mxCell>
        <mxCell id="1Nxv9kPVLoMWar8YV7XD-4" value="grpc-frontend-react" style="text;html=1;align=center;verticalAlign=middle;resizable=0;points=[];autosize=1;strokeColor=none;fillColor=none;" parent="1Nxv9kPVLoMWar8YV7XD-2" vertex="1">
          <mxGeometry x="120" y="30" width="130" height="30" as="geometry" />
        </mxCell>
        <mxCell id="1Nxv9kPVLoMWar8YV7XD-5" value="React.js" style="text;html=1;strokeColor=none;fillColor=none;align=center;verticalAlign=middle;whiteSpace=wrap;rounded=0;fontStyle=1" parent="1Nxv9kPVLoMWar8YV7XD-2" vertex="1">
          <mxGeometry x="340" y="60" width="60" height="30" as="geometry" />
        </mxCell>
        <mxCell id="1Nxv9kPVLoMWar8YV7XD-6" value="" style="swimlane;startSize=0;" parent="1Nxv9kPVLoMWar8YV7XD-1" vertex="1">
          <mxGeometry x="214" y="469.57" width="400" height="90" as="geometry" />
        </mxCell>
        <mxCell id="1Nxv9kPVLoMWar8YV7XD-7" value="&lt;span style=&quot;font-size: 18px;&quot;&gt;&lt;b&gt;Back-end Cliente&lt;/b&gt;&lt;/span&gt;" style="text;html=1;align=center;verticalAlign=middle;resizable=0;points=[];autosize=1;strokeColor=none;fillColor=none;" parent="1Nxv9kPVLoMWar8YV7XD-6" vertex="1">
          <mxGeometry x="110" width="170" height="40" as="geometry" />
        </mxCell>
        <mxCell id="1Nxv9kPVLoMWar8YV7XD-8" value="grpc-client-net" style="text;html=1;align=center;verticalAlign=middle;resizable=0;points=[];autosize=1;strokeColor=none;fillColor=none;" parent="1Nxv9kPVLoMWar8YV7XD-6" vertex="1">
          <mxGeometry x="145" y="30" width="100" height="30" as="geometry" />
        </mxCell>
        <mxCell id="1Nxv9kPVLoMWar8YV7XD-9" value="C# .NET" style="text;html=1;strokeColor=none;fillColor=none;align=center;verticalAlign=middle;whiteSpace=wrap;rounded=0;fontStyle=1" parent="1Nxv9kPVLoMWar8YV7XD-6" vertex="1">
          <mxGeometry x="340" y="60" width="60" height="30" as="geometry" />
        </mxCell>
        <mxCell id="1Nxv9kPVLoMWar8YV7XD-13" value="" style="swimlane;startSize=0;" parent="1Nxv9kPVLoMWar8YV7XD-1" vertex="1">
          <mxGeometry x="214" y="709.5699999999999" width="400" height="90" as="geometry" />
        </mxCell>
        <mxCell id="1Nxv9kPVLoMWar8YV7XD-14" value="&lt;span style=&quot;font-size: 18px;&quot;&gt;&lt;b&gt;Back-end Servidor&lt;/b&gt;&lt;/span&gt;" style="text;html=1;align=center;verticalAlign=middle;resizable=0;points=[];autosize=1;strokeColor=none;fillColor=none;" parent="1Nxv9kPVLoMWar8YV7XD-13" vertex="1">
          <mxGeometry x="105" width="180" height="40" as="geometry" />
        </mxCell>
        <mxCell id="1Nxv9kPVLoMWar8YV7XD-15" value="grpc-server-java" style="text;html=1;align=center;verticalAlign=middle;resizable=0;points=[];autosize=1;strokeColor=none;fillColor=none;" parent="1Nxv9kPVLoMWar8YV7XD-13" vertex="1">
          <mxGeometry x="140" y="30" width="110" height="30" as="geometry" />
        </mxCell>
        <mxCell id="1Nxv9kPVLoMWar8YV7XD-16" value="Java maven" style="text;html=1;strokeColor=none;fillColor=none;align=center;verticalAlign=middle;whiteSpace=wrap;rounded=0;fontStyle=1" parent="1Nxv9kPVLoMWar8YV7XD-13" vertex="1">
          <mxGeometry x="320" y="60" width="80" height="30" as="geometry" />
        </mxCell>
        <mxCell id="1Nxv9kPVLoMWar8YV7XD-25" value="" style="shape=link;html=1;rounded=0;fillColor=#dae8fc;strokeColor=#6c8ebf;" parent="1Nxv9kPVLoMWar8YV7XD-1" edge="1">
          <mxGeometry relative="1" as="geometry">
            <mxPoint x="214" y="429.57" as="sourcePoint" />
            <mxPoint x="614" y="429.57" as="targetPoint" />
          </mxGeometry>
        </mxCell>
        <mxCell id="1Nxv9kPVLoMWar8YV7XD-26" value="" style="resizable=0;html=1;whiteSpace=wrap;align=right;verticalAlign=bottom;fontStyle=1" parent="1Nxv9kPVLoMWar8YV7XD-25" connectable="0" vertex="1">
          <mxGeometry x="1" relative="1" as="geometry">
            <mxPoint x="-30" as="offset" />
          </mxGeometry>
        </mxCell>
        <mxCell id="1Nxv9kPVLoMWar8YV7XD-27" value="&lt;b&gt;&lt;font color=&quot;#3399ff&quot;&gt;Rest on HTTP&lt;/font&gt;&lt;/b&gt;" style="text;html=1;strokeColor=none;fillColor=none;align=center;verticalAlign=middle;whiteSpace=wrap;rounded=0;" parent="1Nxv9kPVLoMWar8YV7XD-1" vertex="1">
          <mxGeometry x="354" y="429.57" width="100" height="30" as="geometry" />
        </mxCell>
        <mxCell id="1Nxv9kPVLoMWar8YV7XD-28" value="" style="shape=link;html=1;rounded=0;fillColor=#f8cecc;strokeColor=#b85450;" parent="1Nxv9kPVLoMWar8YV7XD-1" edge="1">
          <mxGeometry relative="1" as="geometry">
            <mxPoint x="214" y="669.5699999999999" as="sourcePoint" />
            <mxPoint x="614" y="669.5699999999999" as="targetPoint" />
          </mxGeometry>
        </mxCell>
        <mxCell id="1Nxv9kPVLoMWar8YV7XD-29" value="" style="resizable=0;html=1;whiteSpace=wrap;align=right;verticalAlign=bottom;fontStyle=1" parent="1Nxv9kPVLoMWar8YV7XD-28" connectable="0" vertex="1">
          <mxGeometry x="1" relative="1" as="geometry">
            <mxPoint x="-30" as="offset" />
          </mxGeometry>
        </mxCell>
        <mxCell id="1Nxv9kPVLoMWar8YV7XD-30" value="&lt;b&gt;&lt;font color=&quot;#ff3333&quot;&gt;gRPC on HTTP/2&lt;/font&gt;&lt;/b&gt;" style="text;html=1;strokeColor=none;fillColor=none;align=center;verticalAlign=middle;whiteSpace=wrap;rounded=0;" parent="1Nxv9kPVLoMWar8YV7XD-1" vertex="1">
          <mxGeometry x="354" y="669.5699999999999" width="100" height="30" as="geometry" />
        </mxCell>
        <mxCell id="1Nxv9kPVLoMWar8YV7XD-53" value="" style="html=1;shadow=0;dashed=0;align=center;verticalAlign=middle;shape=mxgraph.arrows2.arrow;dy=0.6;dx=40;direction=south;notch=0;" parent="1Nxv9kPVLoMWar8YV7XD-1" vertex="1">
          <mxGeometry x="285.25" y="579.5699999999999" width="65" height="70" as="geometry" />
        </mxCell>
        <mxCell id="1Nxv9kPVLoMWar8YV7XD-54" value="" style="html=1;shadow=0;dashed=0;align=center;verticalAlign=middle;shape=mxgraph.arrows2.arrow;dy=0.6;dx=40;direction=north;notch=0;" parent="1Nxv9kPVLoMWar8YV7XD-1" vertex="1">
          <mxGeometry x="452.75" y="579.5699999999999" width="70" height="70" as="geometry" />
        </mxCell>
        <mxCell id="1Nxv9kPVLoMWar8YV7XD-55" value="" style="html=1;shadow=0;dashed=0;align=center;verticalAlign=middle;shape=mxgraph.arrows2.arrow;dy=0.6;dx=40;direction=south;notch=0;" parent="1Nxv9kPVLoMWar8YV7XD-1" vertex="1">
          <mxGeometry x="285.25" y="329.57" width="65" height="70" as="geometry" />
        </mxCell>
        <mxCell id="1Nxv9kPVLoMWar8YV7XD-56" value="" style="html=1;shadow=0;dashed=0;align=center;verticalAlign=middle;shape=mxgraph.arrows2.arrow;dy=0.6;dx=40;direction=north;notch=0;" parent="1Nxv9kPVLoMWar8YV7XD-1" vertex="1">
          <mxGeometry x="452.75" y="329.57" width="70" height="70" as="geometry" />
        </mxCell>
        <mxCell id="1Nxv9kPVLoMWar8YV7XD-69" value="&lt;b&gt;&lt;font color=&quot;#cc99ff&quot;&gt;JPA&lt;/font&gt;&lt;/b&gt;" style="text;html=1;strokeColor=none;fillColor=none;align=center;verticalAlign=middle;whiteSpace=wrap;rounded=0;rotation=0;" parent="1Nxv9kPVLoMWar8YV7XD-1" vertex="1">
          <mxGeometry x="344" y="799.5699999999999" width="100" height="30" as="geometry" />
        </mxCell>
        <mxCell id="1Nxv9kPVLoMWar8YV7XD-70" value="" style="swimlane;startSize=0;" parent="1Nxv9kPVLoMWar8YV7XD-1" vertex="1">
          <mxGeometry x="214" y="849.5699999999999" width="396.25" height="90" as="geometry" />
        </mxCell>
        <mxCell id="1Nxv9kPVLoMWar8YV7XD-71" value="&lt;span style=&quot;font-size: 18px;&quot;&gt;&lt;b&gt;Base de datos&lt;/b&gt;&lt;/span&gt;" style="text;html=1;align=center;verticalAlign=middle;resizable=0;points=[];autosize=1;strokeColor=none;fillColor=none;" parent="1Nxv9kPVLoMWar8YV7XD-70" vertex="1">
          <mxGeometry x="120" width="150" height="40" as="geometry" />
        </mxCell>
        <mxCell id="1Nxv9kPVLoMWar8YV7XD-72" value="relacional" style="text;html=1;align=center;verticalAlign=middle;resizable=0;points=[];autosize=1;strokeColor=none;fillColor=none;" parent="1Nxv9kPVLoMWar8YV7XD-70" vertex="1">
          <mxGeometry x="160" y="30" width="70" height="30" as="geometry" />
        </mxCell>
        <mxCell id="1Nxv9kPVLoMWar8YV7XD-73" value="MySQL" style="text;html=1;strokeColor=none;fillColor=none;align=center;verticalAlign=middle;whiteSpace=wrap;rounded=0;fontStyle=1" parent="1Nxv9kPVLoMWar8YV7XD-70" vertex="1">
          <mxGeometry x="316.25" y="50" width="80" height="30" as="geometry" />
        </mxCell>
        <mxCell id="1Nxv9kPVLoMWar8YV7XD-74" value="" style="shape=link;html=1;rounded=0;labelBackgroundColor=default;strokeColor=#9673a6;fontFamily=Helvetica;fontSize=11;fontColor=default;endArrow=classic;fillColor=#e1d5e7;" parent="1Nxv9kPVLoMWar8YV7XD-1" edge="1">
          <mxGeometry relative="1" as="geometry">
            <mxPoint x="214" y="829.5699999999999" as="sourcePoint" />
            <mxPoint x="614" y="829.5699999999999" as="targetPoint" />
          </mxGeometry>
        </mxCell>
        <mxCell id="1Nxv9kPVLoMWar8YV7XD-75" value="" style="resizable=0;html=1;whiteSpace=wrap;align=right;verticalAlign=bottom;fontFamily=Helvetica;fontSize=11;fontColor=default;" parent="1Nxv9kPVLoMWar8YV7XD-74" connectable="0" vertex="1">
          <mxGeometry x="1" relative="1" as="geometry" />
        </mxCell>
      </root>
    </mxGraphModel>
  </diagram>
</mxfile>
